<?xml version="1.0" encoding="utf-8"?>
<!-- Generator: Adobe Illustrator 16.0.0, SVG Export Plug-In . SVG Version: 6.00 Build 0)  -->
<!DOCTYPE svg PUBLIC "-//W3C//DTD SVG 1.0//EN" "http://www.w3.org/TR/2001/REC-SVG-20010904/DTD/svg10.dtd">
<svg version="1.0" id="Add-circle" xmlns="http://www.w3.org/2000/svg" xmlns:xlink="http://www.w3.org/1999/xlink" x="0px" y="0px"
	 width="48px" height="48px" viewBox="0 0 48 48" enable-background="new 0 0 48 48" xml:space="preserve">
<g>
	<g>
		<path fill="#EFEFEF" d="M24,6c9.925,0,18,8.075,18,18c0,9.925-8.075,18-18,18c-9.925,0-18-8.075-18-18C6,14.075,14.075,6,24,6
			 M24,4C12.955,4,4,12.955,4,24s8.955,20,20,20s20-8.955,20-20S35.045,4,24,4L24,4z"/>
	</g>
	<line fill="none" stroke="#EFEFEF" stroke-width="3" stroke-miterlimit="10" x1="24.001" y1="14" x2="24.001" y2="34"/>
	<line fill="none" stroke="#EFEFEF" stroke-width="3" stroke-miterlimit="10" x1="14" y1="24" x2="34.001" y2="24"/>
</g>
</svg>
